# File created by Blade
# Date/Time:  Wed Sep 24 19:53:44 2014
# Frame Rate: 120.000 fps
#------------------------------------------------------
:FULLY-SPECIFIED
:DEGREES
3617
root -6.116616 32.884338 -4.237564 8.684934 18.939286 -0.218286
Spine -14.211380 28.207174 -2.143434
Head -3.702988 -25.667535 10.980799
LeftShoulder -24.051832 22.238334 18.833936
LeftArm -8.712244 -78.076008 -26.691325
LeftForeArm -18.450937 -0.000000 124.029834
LeftHand -17.725902 -0.000000 12.373319
LeftHandThumb1 -26.253704 0.000000 33.147579
RightShoulder -21.048174 9.219162 -22.283941
RightArm -19.625726 -4.128064 75.610711
RightForeArm -24.686242 -0.000000 22.498484
RightHand -8.464436 -0.000000 8.210701
RightHandThumb1 -24.326973 -0.000000 -32.862282
LeftUpLeg -5.608889 -5.643032 6.127495
LeftLeg -1.591870 -0.000000 0.000000
LeftFoot -7.218076 1.524798 -18.968386
LeftToeBase 11.738844 -0.000000 -0.000000
RightUpLeg -0.957176 -20.061402 -2.008410
RightLeg 0.589862 -0.000000 -0.000000
RightFoot -6.977382 -7.637838 -10.905924
RightToeBase -0.698288 -0.000000 0.000000
3618
root -6.122579 32.884625 -4.234948 8.645638 18.959549 -0.204528
Spine -14.112741 28.331738 -2.103560
Head -3.663873 -25.823886 10.858720
LeftShoulder -24.050650 22.244244 18.764713
LeftArm -8.593858 -78.086793 -26.903844
LeftForeArm -18.340023 -0.000000 123.823472
LeftHand -17.610877 -0.000000 12.119676
LeftHandThumb1 -26.253704 0.000000 33.147579
RightShoulder -21.008539 9.236807 -22.339258
RightArm -19.609274 -4.084419 75.589454
RightForeArm -24.825089 -0.000000 22.509406
RightHand -8.502434 -0.000000 8.322876
RightHandThumb1 -24.326973 -0.000000 -32.862282
LeftUpLeg -5.591517 -5.762884 6.139865
LeftLeg -1.547183 -0.000000 0.000000
LeftFoot -7.240915 1.579856 -18.988957
LeftToeBase 11.668286 -0.000000 -0.000000
RightUpLeg -0.911275 -20.173314 -2.019631
RightLeg 0.598043 -0.000000 -0.000000
RightFoot -7.010430 -7.585125 -10.956640
RightToeBase -0.641030 -0.000000 0.000000
3619
root -6.129143 32.884934 -4.232307 8.622024 18.985691 -0.209724
Spine -14.045798 28.448887 -2.054619
Head -3.642251 -25.961751 10.745173
LeftShoulder -24.046682 22.258647 18.697519
LeftArm -8.604015 -78.047771 -26.970863
LeftForeArm -18.376149 -0.000000 123.633718
LeftHand -17.762462 0.000000 12.462691
LeftHandThumb1 -26.253704 0.000000 33.147579
RightShoulder -20.976317 9.255300 -22.403217
RightArm -19.660412 -4.551403 75.679993
RightForeArm -24.408935 -0.000000 22.642370
RightHand -8.703938 0.000000 7.899725
RightHandThumb1 -24.326973 -0.000000 -32.862282
LeftUpLeg -5.590028 -5.898777 6.178629
LeftLeg -1.516343 -0.000000 0.000000
LeftFoot -7.274638 1.633953 -19.041342
LeftToeBase 11.702068 -0.000000 -0.000000
RightUpLeg -0.891047 -20.287497 -2.004147
RightLeg 0.608585 -0.000000 -0.000000
RightFoot -7.024380 -7.515611 -10.969228
RightToeBase -0.687026 -0.000000 0.000000
3620
root -6.133063 32.885464 -4.229274 8.606160 19.013555 -0.197371
Spine -13.996991 28.576495 -2.012394
Head -3.570666 -26.108665 10.562077
LeftShoulder -24.046665 22.275975 18.613012
LeftArm -8.538854 -78.053451 -27.103591
LeftForeArm -18.395034 -0.000000 123.380866
LeftHand -17.587498 -0.000000 12.330703
LeftHandThumb1 -26.253704 0.000000 33.147579
RightShoulder -20.926531 9.229684 -22.461420
RightArm -19.613430 -4.314421 75.601234
RightForeArm -24.650316 0.000000 22.597535
RightHand -8.594552 -0.000000 8.358172
RightHandThumb1 -24.326973 -0.000000 -32.862282
LeftUpLeg -5.586835 -6.013901 6.190470
LeftLeg -1.489248 -0.000000 0.000000
LeftFoot -7.300291 1.680647 -19.121035
LeftToeBase 11.774106 -0.000000 -0.000000
RightUpLeg -0.872633 -20.390085 -2.011593
RightLeg 0.625719 -0.000000 -0.000000
RightFoot -7.054749 -7.459635 -10.993288
RightToeBase -0.667165 -0.000000 0.000000
3621
root -6.138026 32.886464 -4.226322 8.595293 19.052493 -0.192119
Spine -13.959610 28.687093 -1.974189
Head -3.516101 -26.277816 10.406520
LeftShoulder -24.036413 22.280130 18.542872
LeftArm -8.717682 -78.004217 -26.990071
LeftForeArm -18.442807 -0.000000 123.165449
LeftHand -17.608049 -0.000000 12.471093
LeftHandThumb1 -26.253704 0.000000 33.147579
RightShoulder -20.915053 9.210464 -22.506891
RightArm -19.575176 -4.210746 75.559749
RightForeArm -24.604587 -0.000000 22.592892
RightHand -8.632040 -0.000000 7.993225
RightHandThumb1 -24.326973 -0.000000 -32.862282
LeftUpLeg -5.586052 -6.136748 6.212138
LeftLeg -1.476542 -0.000000 0.000000
LeftFoot -7.315852 1.743899 -19.137254
LeftToeBase 11.757697 -0.000000 -0.000000
RightUpLeg -0.865666 -20.493824 -2.004058
RightLeg 0.645925 -0.000000 -0.000000
RightFoot -7.065695 -7.417840 -11.027638
RightToeBase -0.677697 -0.000000 0.000000
3622
root -6.141519 32.886258 -4.222998 8.596436 19.085982 -0.173270
Spine -13.940049 28.785389 -1.972738
Head -3.475027 -26.440880 10.283475
LeftShoulder -24.072367 22.254616 18.494722
LeftArm -8.788587 -77.930474 -26.962374
LeftForeArm -18.436607 -0.000000 122.934374
LeftHand -17.764933 -0.000000 12.871977
LeftHandThumb1 -26.253704 0.000000 33.147579
RightShoulder -20.910233 9.204863 -22.541170
RightArm -19.599382 -4.514481 75.586058
RightForeArm -24.448674 -0.000000 22.678068
RightHand -8.658590 -0.000000 7.961445
RightHandThumb1 -24.326973 -0.000000 -32.862282
LeftUpLeg -5.583719 -6.192439 6.212796
LeftLeg -1.479912 -0.000000 0.000000
LeftFoot -7.312437 1.750393 -19.183880
LeftToeBase 11.777942 -0.000000 -0.000000
RightUpLeg -0.847898 -20.534523 -2.017788
RightLeg 0.641421 -0.000000 -0.000000
RightFoot -7.077126 -7.395619 -10.995957
RightToeBase -0.774921 -0.000000 0.000000
3623
root -6.145091 32.886613 -4.218833 8.596204 19.128454 -0.171883
Spine -13.939564 28.887421 -1.946957
Head -3.392682 -26.635494 10.107209
LeftShoulder -24.076474 22.236840 18.464501
LeftArm -9.102366 -77.871993 -26.731654
LeftForeArm -18.675944 -0.000000 122.678921
LeftHand -17.580523 -0.000000 12.561930
LeftHandThumb1 -26.253704 0.000000 33.147579
RightShoulder -20.885391 9.214747 -22.593662
RightArm -19.635212 -4.619621 75.570744
RightForeArm -24.308510 -0.000000 22.711570
RightHand -8.697397 -0.000000 8.093772
RightHandThumb1 -24.326973 -0.000000 -32.862282
LeftUpLeg -5.571793 -6.244816 6.229853
LeftLeg -1.510134 -0.000000 0.000000
LeftFoot -7.283343 1.750912 -19.199455
LeftToeBase 11.770717 -0.000000 -0.000000
RightUpLeg -0.835041 -20.571459 -2.010048
RightLeg 0.636391 -0.000000 -0.000000
RightFoot -7.078247 -7.388663 -11.009118
RightToeBase -0.718874 -0.000000 0.000000
3624
root -6.147442 32.887319 -4.213298 8.599227 19.186217 -0.156159
Spine -13.941781 28.970408 -1.930377
Head -3.289314 -26.826314 9.899675
LeftShoulder -24.082318 22.251072 18.403582
LeftArm -9.361082 -77.808783 -26.521120
LeftForeArm -18.824765 -0.000000 122.438774
LeftHand -17.789998 -0.000000 13.102499
LeftHandThumb1 -26.253704 0.000000 33.147579
RightShoulder -20.855991 9.242748 -22.634982
RightArm -19.644826 -4.207343 75.425229
RightForeArm -24.688575 -0.000000 22.650111
RightHand -8.505731 0.000000 8.218903
RightHandThumb1 -24.326973 -0.000000 -32.862282
LeftUpLeg -5.565316 -6.222360 6.219580
LeftLeg -1.526333 -0.000000 0.000000
LeftFoot -7.241581 1.711457 -19.143781
LeftToeBase 11.772941 -0.000000 -0.000000
RightUpLeg -0.816621 -20.618015 -2.016053
RightLeg 0.637206 -0.000000 -0.000000
RightFoot -7.078747 -7.391510 -10.974379
RightToeBase -0.745384 -0.000000 0.000000
3625
root -6.150655 32.888171 -4.206940 8.587793 19.255908 -0.159613
Spine -13.938279 29.046614 -1.900632
Head -3.192032 -27.019965 9.742887
LeftShoulder -24.106726 22.263677 18.362799
LeftArm -9.588532 -77.816168 -26.379002
LeftForeArm -19.026873 -0.000000 122.191483
LeftHand -17.686345 -0.000000 12.976894
LeftHandThumb1 -26.253704 0.000000 33.147579
RightShoulder -20.861448 9.259774 -22.660202
RightArm -19.695721 -4.458194 75.427094
RightForeArm -24.445828 -0.000000 22.714071
RightHand -8.631385 -0.000000 8.056687
RightHandThumb1 -24.326973 -0.000000 -32.862282
LeftUpLeg -5.543376 -6.205126 6.228263
LeftLeg -1.560354 -0.000000 0.000000
LeftFoot -7.190408 1.656703 -19.149831
LeftToeBase 11.770406 -0.000000 -0.000000
RightUpLeg -0.800345 -20.711164 -2.002762
RightLeg 0.660640 -0.000000 -0.000000
RightFoot -7.091940 -7.370378 -10.960218
RightToeBase -0.757381 -0.000000 0.000000
3626
root -6.153094 32.887988 -4.199875 8.573172 19.321325 -0.148044
Spine -13.930294 29.109323 -1.880258
Head -3.070818 -27.177782 9.579223
LeftShoulder -24.166689 22.285757 18.304774
LeftArm -9.710142 -77.781634 -26.303003
LeftForeArm -19.348845 0.000000 121.936964
LeftHand -17.621631 0.000000 12.768527
LeftHandThumb1 -26.253704 0.000000 33.147579
RightShoulder -20.792659 9.264078 -22.676887
RightArm -19.754774 -4.500157 75.401779
RightForeArm -24.419637 -0.000000 22.765946
RightHand -8.684888 -0.000000 8.071879
RightHandThumb1 -24.326973 -0.000000 -32.862282
LeftUpLeg -5.505471 -6.155501 6.217814
LeftLeg -1.606533 -0.000000 0.000000
LeftFoot -7.124347 1.587444 -19.110793
LeftToeBase 11.742298 -0.000000 -0.000000
RightUpLeg -0.753961 -20.736654 -2.012332
RightLeg 0.651207 -0.000000 -0.000000
RightFoot -7.095580 -7.396472 -10.926394
RightToeBase -0.762313 -0.000000 0.000000
3627
root -6.155754 32.888006 -4.192884 8.568626 19.397551 -0.145062
Spine -13.938105 29.171760 -1.862882
Head -2.982380 -27.297439 9.468205
LeftShoulder -24.228067 22.299956 18.261172
LeftArm -9.767650 -77.753939 -26.318484
LeftForeArm -19.604206 -0.000000 121.703889
LeftHand -17.583457 -0.000000 12.922400
LeftHandThumb1 -26.253704 0.000000 33.147579
RightShoulder -20.786635 9.245858 -22.694811
RightArm -19.756855 -4.549103 75.363597
RightForeArm -24.383962 -0.000000 22.779243
RightHand -8.693429 -0.000000 8.042881
RightHandThumb1 -24.326973 -0.000000 -32.862282
LeftUpLeg -5.478549 -6.154638 6.224196
LeftLeg -1.660226 -0.000000 0.000000
LeftFoot -7.081715 1.538722 -19.103334
LeftToeBase 11.758877 -0.000000 -0.000000
RightUpLeg -0.740875 -20.819691 -2.007878
RightLeg 0.684478 -0.000000 -0.000000
RightFoot -7.125748 -7.372351 -10.916119
RightToeBase -0.775174 -0.000000 0.000000
